<svg width="28" height="28" viewBox="0 0 28 28" fill="none" xmlns="http://www.w3.org/2000/svg">
<g opacity="0.8">
<path d="M17.0799 4.06011C17.2899 4.06011 17.4999 4.06011 17.9199 4.06011V7.21011C17.7099 7.21011 17.2899 7.21011 16.8699 7.21011C16.4499 7.21011 16.0299 7.21011 15.8199 7.42011C15.6099 7.63011 15.6099 7.84011 15.6099 8.33011C15.6099 8.75011 15.6099 9.03011 15.6099 9.45011H17.9199V12.1101H15.6099V23.6601H12.0399V12.0401H10.1499V9.38011H12.0399V8.47011C12.0399 6.93011 12.2499 5.81011 12.6699 5.32011C13.2999 4.41011 14.5599 3.99011 16.4499 3.99011C16.6599 4.06011 16.8699 4.06011 17.0799 4.06011Z" fill="#242424"/>
</g>
</svg>
