<svg width="28" height="28" viewBox="0 0 28 28" fill="none" xmlns="http://www.w3.org/2000/svg">
<g opacity="0.8">
<path d="M25.1277 9.41152C25.114 8.47146 24.9398 7.53885 24.6065 6.65964C24.0231 5.15827 22.8352 3.97109 21.3313 3.38991C20.4618 3.06332 19.5426 2.88822 18.6122 2.86835C17.4155 2.81495 17.0361 2.80005 13.9986 2.80005C10.961 2.80005 10.5716 2.80005 9.38372 2.86835C8.45454 2.88822 7.5353 3.06332 6.66582 3.38991C5.16196 3.97109 3.97279 5.15827 3.39065 6.65964C3.06351 7.52767 2.88688 8.44538 2.86946 9.37302C2.81598 10.5689 2.7998 10.9477 2.7998 13.9802C2.7998 17.0127 2.7998 17.4002 2.86946 18.5873C2.88812 19.5162 3.06351 20.4327 3.39065 21.3032C3.97404 22.8033 5.16195 23.9905 6.66706 24.5717C7.53281 24.9095 8.45205 25.1007 9.38497 25.1305C10.5828 25.1839 10.9622 25.2001 13.9998 25.2001C17.0374 25.2001 17.4267 25.2001 18.6146 25.1305C19.5438 25.1119 20.4631 24.9368 21.3338 24.6102C22.8377 24.0278 24.0256 22.8406 24.609 21.3405C24.9361 20.4712 25.1115 19.5547 25.1301 18.6246C25.1836 17.43 25.1998 17.0512 25.1998 14.0174C25.1973 10.9849 25.1973 10.5999 25.1277 9.41152ZM13.9911 19.7149C10.8142 19.7149 8.24059 17.1456 8.24059 13.974C8.24059 10.8024 10.8142 8.23302 13.9911 8.23302C17.1655 8.23302 19.7416 10.8024 19.7416 13.974C19.7416 17.1456 17.1655 19.7149 13.9911 19.7149ZM19.9705 9.35936C19.2279 9.35936 18.6296 8.7608 18.6296 8.02067C18.6296 7.28055 19.2279 6.68199 19.9705 6.68199C20.7106 6.68199 21.3102 7.28055 21.3102 8.02067C21.3102 8.7608 20.7106 9.35936 19.9705 9.35936Z" fill="#242424"/>
<path d="M13.9932 17.4789C15.9282 17.4789 17.4967 15.9104 17.4967 13.9754C17.4967 12.0405 15.9282 10.4719 13.9932 10.4719C12.0583 10.4719 10.4897 12.0405 10.4897 13.9754C10.4897 15.9104 12.0583 17.4789 13.9932 17.4789Z" fill="#242424"/>
</g>
</svg>
