<svg width="28" height="28" viewBox="0 0 28 28" fill="none" xmlns="http://www.w3.org/2000/svg">
<g opacity="0.8">
<path fill-rule="evenodd" clip-rule="evenodd" d="M21.2099 5.24986C20.0199 5.17986 17.5699 5.10986 13.8599 5.10986H13.3699C9.79985 5.10986 7.41989 5.17986 6.22989 5.31986C4.61989 5.45986 3.49985 5.87986 2.86985 6.43986C2.30985 6.92986 1.88987 7.83986 1.74987 9.02986C1.67987 9.79986 1.60986 11.4099 1.60986 13.8599V14.2099C1.60986 16.5199 1.67985 18.1299 1.81985 18.8999C2.02985 20.0199 2.37989 20.8599 3.07989 21.3499C3.77989 21.9099 4.96987 22.2599 6.64987 22.3999C7.83987 22.4699 10.2899 22.5399 13.9999 22.5399H14.4899C18.0599 22.5399 20.4399 22.4699 21.6299 22.3299C23.2399 22.1899 24.3599 21.7699 24.9899 21.2099C25.5499 20.7199 25.9699 19.8099 26.1099 18.6199C26.1799 17.8499 26.2499 16.2399 26.2499 13.7899V13.4399C26.2499 11.1299 26.1799 9.51986 26.0399 8.74986C25.8299 7.62986 25.4799 6.78986 24.7799 6.29986C24.0799 5.73986 22.8899 5.38986 21.2099 5.24986ZM18.4799 13.8599L10.7799 18.4799V9.23986L18.4799 13.8599Z" fill="#242424"/>
</g>
</svg>
